<svg width="1036" height="1036" xmlns="http://www.w3.org/2000/svg" xmlns:xlink="http://www.w3.org/1999/xlink" xml:space="preserve" overflow="hidden"><g transform="translate(-2548 -577)"><g><g><g><g><path d="M855.453 290.531C891.11 290.531 920.016 319.437 920.016 355.094L920.016 936.156C920.016 971.813 891.11 1000.72 855.453 1000.72L177.547 1000.72C141.89 1000.72 112.984 971.813 112.984 936.156L112.984 355.094C112.984 319.437 141.89 290.531 177.547 290.531Z" stroke="#702573" stroke-width="32.2806" stroke-linecap="round" stroke-linejoin="round" stroke-miterlimit="10" stroke-opacity="1" fill="none" fill-rule="nonzero" transform="matrix(1 0 0 1 2549 578)"/><path d="M32.2812 564.922 32.2812 726.328" stroke="#702573" stroke-width="32.2806" stroke-linecap="round" stroke-linejoin="round" stroke-miterlimit="10" stroke-opacity="1" fill="none" fill-rule="nonzero" transform="matrix(1 0 0 1 2549 578)"/><path d="M1000.72 564.922 1000.72 726.328" stroke="#702573" stroke-width="32.2806" stroke-linecap="round" stroke-linejoin="round" stroke-miterlimit="10" stroke-opacity="1" fill="none" fill-rule="nonzero" transform="matrix(1 0 0 1 2549 578)"/><path d="M355.094 96.8438C355.094 132.501 326.188 161.406 290.531 161.406 254.874 161.406 225.969 132.501 225.969 96.8438 225.969 61.1869 254.874 32.2812 290.531 32.2812 326.188 32.2812 355.094 61.1869 355.094 96.8438Z" stroke="#702573" stroke-width="32.2806" stroke-linecap="round" stroke-linejoin="round" stroke-miterlimit="10" stroke-opacity="1" fill="none" fill-rule="nonzero" transform="matrix(1 0 0 1 2549 578)"/><path d="M290.531 161.406 290.531 290.531" stroke="#702573" stroke-width="32.2806" stroke-linecap="round" stroke-linejoin="round" stroke-miterlimit="10" stroke-opacity="1" fill="none" fill-rule="nonzero" transform="matrix(1 0 0 1 2549 578)"/><path d="M807.031 96.8438C807.031 132.501 778.126 161.406 742.469 161.406 706.812 161.406 677.906 132.501 677.906 96.8438 677.906 61.1869 706.812 32.2812 742.469 32.2812 778.126 32.2812 807.031 61.1869 807.031 96.8438Z" stroke="#702573" stroke-width="32.2806" stroke-linecap="round" stroke-linejoin="round" stroke-miterlimit="10" stroke-opacity="1" fill="none" fill-rule="nonzero" transform="matrix(1 0 0 1 2549 578)"/><path d="M742.469 161.406 742.469 290.531" stroke="#702573" stroke-width="32.2806" stroke-linecap="round" stroke-linejoin="round" stroke-miterlimit="10" stroke-opacity="1" fill="none" fill-rule="nonzero" transform="matrix(1 0 0 1 2549 578)"/><path d="M242.109 710.188 790.891 710.188 790.891 871.594 242.109 871.594Z" stroke="#702573" stroke-width="32.2806" stroke-linecap="round" stroke-linejoin="round" stroke-miterlimit="10" stroke-opacity="1" fill="none" fill-rule="nonzero" transform="matrix(1 0 0 1 2549 578)"/><path d="M403.516 516.5C403.516 561.071 367.384 597.203 322.812 597.203 278.241 597.203 242.109 561.071 242.109 516.5 242.109 471.929 278.241 435.797 322.812 435.797 367.384 435.797 403.516 471.929 403.516 516.5Z" stroke="#702573" stroke-width="32.2806" stroke-linecap="round" stroke-linejoin="round" stroke-miterlimit="10" stroke-opacity="1" fill="none" fill-rule="nonzero" transform="matrix(1 0 0 1 2549 578)"/><path d="M790.891 516.5C790.891 561.071 754.759 597.203 710.188 597.203 665.616 597.203 629.484 561.071 629.484 516.5 629.484 471.929 665.616 435.797 710.188 435.797 754.759 435.797 790.891 471.929 790.891 516.5Z" stroke="#702573" stroke-width="32.2806" stroke-linecap="round" stroke-linejoin="round" stroke-miterlimit="10" stroke-opacity="1" fill="none" fill-rule="nonzero" transform="matrix(1 0 0 1 2549 578)"/></g></g></g><path d="M2841 934 3023.84 980.957" stroke="#702573" stroke-width="13.75" stroke-linecap="butt" stroke-linejoin="round" stroke-miterlimit="10" stroke-opacity="1" fill="none" fill-rule="evenodd"/><path d="M0 0 202.148 46.9568" stroke="#702573" stroke-width="13.75" stroke-linecap="butt" stroke-linejoin="round" stroke-miterlimit="10" stroke-opacity="1" fill="none" fill-rule="evenodd" transform="matrix(-1 0 0 1 3312.15 934)"/><path d="M2889.5 1286.5 2889.5 1449.39" stroke="#702573" stroke-width="4.58333" stroke-linecap="butt" stroke-linejoin="round" stroke-miterlimit="10" stroke-opacity="1" fill="none" fill-rule="evenodd"/><path d="M3055.5 1286.5 3055.5 1449.39" stroke="#702573" stroke-width="4.58333" stroke-linecap="butt" stroke-linejoin="round" stroke-miterlimit="10" stroke-opacity="1" fill="none" fill-rule="evenodd"/><path d="M3221.5 1286.5 3221.5 1449.39" stroke="#702573" stroke-width="4.58333" stroke-linecap="butt" stroke-linejoin="round" stroke-miterlimit="10" stroke-opacity="1" fill="none" fill-rule="evenodd"/></g></g></svg>