<?xml version="1.0" encoding="UTF-8" standalone="no"?>
<!DOCTYPE svg PUBLIC "-//W3C//DTD SVG 1.1//EN" "http://www.w3.org/Graphics/SVG/1.1/DTD/svg11.dtd">
<svg width="100%" height="100%" viewBox="0 0 128 142" version="1.1" xmlns="http://www.w3.org/2000/svg" xmlns:xlink="http://www.w3.org/1999/xlink" xml:space="preserve" xmlns:serif="http://www.serif.com/" style="fill-rule:evenodd;clip-rule:evenodd;stroke-linecap:square;stroke-miterlimit:8;">
    <g transform="matrix(1,0,0,1,-1315,-760)">
        <g>
            <path d="M1421.73,785.018L1421.73,889.599C1421.73,894.691 1417.43,899 1412.36,899L1343.25,899C1338.18,899 1333.88,894.691 1333.88,889.599L1333.88,785.018M1321,785.018L1435,785.018M1360.43,806.561L1360.43,876.282M1378,806.561L1378,876.282M1395.57,806.561L1395.57,876.282M1395.57,785.018L1395.57,772.484C1395.57,769.35 1393.23,767 1390.1,767L1365.9,767C1362.77,767 1360.43,769.35 1360.43,772.484L1360.43,785.018" style="fill:none;stroke:black;stroke-width:5.73px;"/>
        </g>
    </g>
</svg>
