<svg width="128" height="142" xmlns="http://www.w3.org/2000/svg" xmlns:xlink="http://www.w3.org/1999/xlink" xml:space="preserve" overflow="hidden"><g transform="translate(-1315 -760)"><g><path d="M1421.73 785.018C1421.73 889.599 1421.73 889.599 1421.73 889.599 1421.73 894.691 1417.43 899 1412.36 899 1343.25 899 1343.25 899 1343.25 899 1338.18 899 1333.88 894.691 1333.88 889.599 1333.88 785.018 1333.88 785.018 1333.88 785.018M1321 785.018C1435 785.018 1435 785.018 1435 785.018M1360.43 806.561C1360.43 876.282 1360.43 876.282 1360.43 876.282M1378 806.561C1378 876.282 1378 876.282 1378 876.282M1395.57 806.561C1395.57 876.282 1395.57 876.282 1395.57 876.282M1395.57 785.018C1395.57 772.484 1395.57 772.484 1395.57 772.484 1395.57 769.35 1393.23 767 1390.1 767 1365.9 767 1365.9 767 1365.9 767 1362.77 767 1360.43 769.35 1360.43 772.484 1360.43 785.018 1360.43 785.018 1360.43 785.018" stroke="#f00" stroke-width="5.72917" stroke-linecap="square" stroke-linejoin="miter" stroke-miterlimit="8" stroke-opacity="1" fill="none" fill-rule="evenodd"/></g></g></svg>