<?xml version="1.0" encoding="UTF-8" standalone="no"?>
<!DOCTYPE svg PUBLIC "-//W3C//DTD SVG 1.1//EN" "http://www.w3.org/Graphics/SVG/1.1/DTD/svg11.dtd">
<svg width="100%" height="100%" viewBox="0 0 600 696" version="1.1" xmlns="http://www.w3.org/2000/svg" xmlns:xlink="http://www.w3.org/1999/xlink" xml:space="preserve" xmlns:serif="http://www.serif.com/" style="fill-rule:evenodd;clip-rule:evenodd;stroke-linecap:round;stroke-linejoin:round;stroke-miterlimit:1.5;">
    <g transform="matrix(1,0,0,1,-216.585,-171.079)">
        <g transform="matrix(1,0,0,1,17.6003,0)">
            <g transform="matrix(0.955444,0,0,0.955444,43.9852,22.7744)">
                <path d="M378.642,464.488L378.642,570.484" style="fill:none;stroke:rgb(128,128,128);stroke-width:27.91px;"/>
            </g>
            <g transform="matrix(0.31634,0,0,0.31634,240.817,353.502)">
                <path d="M378.642,464.488L378.642,570.484" style="fill:none;stroke:rgb(128,128,128);stroke-width:84.3px;"/>
            </g>
            <g transform="matrix(0.0480808,0,0,0.0480808,297.232,492.591)">
                <path d="M378.642,464.488L378.642,570.484" style="fill:none;stroke:rgb(128,128,128);stroke-width:554.62px;"/>
            </g>
            <g transform="matrix(0.334626,0,0,0.334626,324.213,344.039)">
                <path d="M378.642,464.488L378.642,570.484" style="fill:none;stroke:rgb(128,128,128);stroke-width:79.69px;"/>
            </g>
            <g transform="matrix(1.05737,0,0,1.05737,95.7098,-29.9728)">
                <path d="M378.642,464.488L378.642,570.484" style="fill:none;stroke:rgb(128,128,128);stroke-width:25.22px;"/>
            </g>
            <g transform="matrix(1.776,0,0,1.776,-131.233,-401.852)">
                <path d="M378.642,464.488L378.642,570.484" style="fill:none;stroke:rgb(128,128,128);stroke-width:15.02px;"/>
            </g>
            <g transform="matrix(1,0,0,1,207.753,-0.282655)">
                <path d="M378.642,464.488L378.642,570.484" style="fill:none;stroke:rgb(128,128,128);stroke-width:26.67px;"/>
            </g>
            <g transform="matrix(0.659556,0,0,0.659556,381.82,175.893)">
                <path d="M378.642,464.488L378.642,570.484" style="fill:none;stroke:rgb(128,128,128);stroke-width:40.43px;"/>
            </g>
            <g transform="matrix(0.123475,0,0,0.123475,629.962,453.307)">
                <path d="M378.642,464.488L378.642,570.484" style="fill:none;stroke:rgb(128,128,128);stroke-width:215.97px;"/>
            </g>
        </g>
        <g transform="matrix(1,0,0,1,17.6003,0)">
            <g transform="matrix(0.955444,0,0,0.955444,43.9852,22.7744)">
                <path d="M378.642,464.488L378.642,570.484" style="fill:none;stroke:rgb(22,212,18);stroke-width:27.91px;"/>
            </g>
            <g transform="matrix(0.31634,0,0,0.31634,240.817,353.502)">
                <path d="M378.642,464.488L378.642,570.484" style="fill:none;stroke:rgb(22,212,18);stroke-width:84.3px;"/>
            </g>
            <g transform="matrix(0.0480808,0,0,0.0480808,297.232,492.591)">
                <path d="M378.642,464.488L378.642,570.484" style="fill:none;stroke:rgb(22,212,18);stroke-width:554.62px;"/>
            </g>
            <g transform="matrix(0.334626,0,0,0.334626,324.213,344.039)">
                <path d="M378.642,464.488L378.642,570.484" style="fill:none;stroke:rgb(22,212,18);stroke-width:79.69px;"/>
            </g>
            <g transform="matrix(1.05737,0,0,1.05737,95.7098,-29.9728)">
                <path d="M378.642,464.488L378.642,570.484" style="fill:none;stroke:rgb(22,212,18);stroke-width:25.22px;"/>
            </g>
            <g transform="matrix(1.776,0,0,1.776,-131.233,-401.852)">
                <path d="M378.642,464.488L378.642,570.484" style="fill:none;stroke:rgb(22,212,18);stroke-width:15.02px;"/>
            </g>
            <g transform="matrix(1,0,0,1,207.753,-0.282655)">
                <path d="M378.642,464.488L378.642,570.484" style="fill:none;stroke:rgb(22,212,18);stroke-width:26.67px;"/>
            </g>
            <g transform="matrix(0.659556,0,0,0.659556,381.82,175.893)">
                <path d="M378.642,464.488L378.642,570.484" style="fill:none;stroke:rgb(22,212,18);stroke-width:40.43px;"/>
            </g>
            <g transform="matrix(0.123475,0,0,0.123475,629.962,453.307)">
                <path d="M378.642,464.488L378.642,570.484" style="fill:none;stroke:rgb(22,212,18);stroke-width:215.97px;"/>
            </g>
        </g>
        <g transform="matrix(1,0,0,1,17.6003,0)">
            <g transform="matrix(0.955444,0,0,0.955444,43.9852,22.7744)">
                <path d="M378.642,464.488L378.642,570.484" style="fill:none;stroke:rgb(242,13,13);stroke-width:27.91px;"/>
            </g>
            <g transform="matrix(0.31634,0,0,0.31634,240.817,353.502)">
                <path d="M378.642,464.488L378.642,570.484" style="fill:none;stroke:rgb(242,13,13);stroke-width:84.3px;"/>
            </g>
            <g transform="matrix(0.0480808,0,0,0.0480808,297.232,492.591)">
                <path d="M378.642,464.488L378.642,570.484" style="fill:none;stroke:rgb(242,13,13);stroke-width:554.62px;"/>
            </g>
            <g transform="matrix(0.334626,0,0,0.334626,324.213,344.039)">
                <path d="M378.642,464.488L378.642,570.484" style="fill:none;stroke:rgb(242,13,13);stroke-width:79.69px;"/>
            </g>
            <g transform="matrix(1.05737,0,0,1.05737,95.7098,-29.9728)">
                <path d="M378.642,464.488L378.642,570.484" style="fill:none;stroke:rgb(242,13,13);stroke-width:25.22px;"/>
            </g>
            <g transform="matrix(1.776,0,0,1.776,-131.233,-401.852)">
                <path d="M378.642,464.488L378.642,570.484" style="fill:none;stroke:rgb(242,13,13);stroke-width:15.02px;"/>
            </g>
            <g transform="matrix(1,0,0,1,207.753,-0.282655)">
                <path d="M378.642,464.488L378.642,570.484" style="fill:none;stroke:rgb(242,13,13);stroke-width:26.67px;"/>
            </g>
            <g transform="matrix(0.659556,0,0,0.659556,381.82,175.893)">
                <path d="M378.642,464.488L378.642,570.484" style="fill:none;stroke:rgb(242,13,13);stroke-width:40.43px;"/>
            </g>
            <g transform="matrix(0.123475,0,0,0.123475,629.962,453.307)">
                <path d="M378.642,464.488L378.642,570.484" style="fill:none;stroke:rgb(242,13,13);stroke-width:215.97px;"/>
            </g>
        </g>
        <path d="M769.303,295.547C775.324,295.418 781.416,295.168 787.58,294.797C787.401,558.207 696.394,746.289 512.197,841.362C287.991,711.813 240.696,506.623 239.773,291.4C345.781,298.937 434.936,269 510.874,195.829C539.378,223.195 570.031,245.139 603.401,261.406" style="fill:none;stroke:rgb(242,13,13);stroke-width:26.67px;"/>
        <g transform="matrix(1,0,0,1,193.052,148.749)">
            <path d="M556.904,78.228L422.166,212.966" style="fill:none;stroke:rgb(242,13,13);stroke-width:26.67px;"/>
            <g transform="matrix(-1,0,0,1,979.07,0)">
                <path d="M556.904,78.228L422.166,212.966" style="fill:none;stroke:rgb(242,13,13);stroke-width:26.67px;"/>
            </g>
        </g>
    </g>
</svg>
