<svg width="94" height="94" xmlns="http://www.w3.org/2000/svg" xmlns:xlink="http://www.w3.org/1999/xlink" xml:space="preserve" overflow="hidden"><defs><linearGradient x1="471.009" y1="302.352" x2="474.616" y2="302.352" gradientUnits="userSpaceOnUse" spreadMethod="pad" id="stroke0"><stop offset="0" stop-color="#0073EA" stop-opacity="1"/><stop offset="1" stop-color="#75178C" stop-opacity="1"/></linearGradient><linearGradient x1="414.5" y1="239.312" x2="483.506" y2="239.312" gradientUnits="userSpaceOnUse" spreadMethod="pad" id="stroke1"><stop offset="0" stop-color="#0073EA" stop-opacity="1"/><stop offset="1" stop-color="#75178C" stop-opacity="1"/></linearGradient></defs><g transform="translate(-402 -234)"><g><g><g><g><path d="M471.009 304.156C471.009 305.145 471.823 305.959 472.813 305.959 473.802 305.959 474.616 305.145 474.616 304.156 474.616 303.166 473.802 302.352 472.813 302.352 471.823 302.352 471.009 303.166 471.009 304.156Z" stroke="url(#stroke0)" stroke-width="1.44268" stroke-linecap="square" stroke-linejoin="miter" stroke-miterlimit="10" fill="none" fill-rule="nonzero"/><path d="M463.087 315.788C458.666 318.611 453.941 320.925 449 322.688 444.059 324.45 414.5 311.188 414.5 285.312L414.5 247.938 449 239.312 483.5 247.938 483.5 285.312C483.524 286.32 483.476 287.329 483.356 288.331M463.087 311.044 482.638 311.044 482.638 297.388 463.087 297.388 463.087 311.044ZM478.756 297.388 478.756 289.625C478.742 286.398 476.09 283.746 472.862 283.731 469.635 283.746 466.983 286.398 466.969 289.625L466.969 297.388M435.775 309.031 458.2 309.031M462.789 291.606 456.121 289.701 456.121 284.837C459.039 282.328 461.213 279.065 462.4 275.405 464.47 274.915 466.009 273.153 466.216 271.035 466.803 268.696 465.511 266.264 463.244 265.442L463.244 260.198C463.244 256.663 460.631 253.077 455.105 253.077L453.363 249.384C452.914 248.492 451.851 248.081 450.919 248.438L439.718 252.918C436.832 254.245 434.915 257.077 434.757 260.25L434.757 265.448C432.49 266.27 431.198 268.702 431.786 271.041 431.993 273.158 433.531 274.921 435.601 275.411 436.788 279.071 438.961 282.335 441.88 284.842L441.88 289.707 426.417 294.119" stroke="url(#stroke1)" stroke-width="1.4375" stroke-linecap="square" stroke-linejoin="miter" stroke-miterlimit="10" fill="none" fill-rule="nonzero"/></g></g></g></g></g></svg>