<?xml version="1.0" encoding="UTF-8" standalone="no"?>
<!DOCTYPE svg PUBLIC "-//W3C//DTD SVG 1.1//EN" "http://www.w3.org/Graphics/SVG/1.1/DTD/svg11.dtd">
<svg width="100%" height="100%" viewBox="0 0 64 64" version="1.1" xmlns="http://www.w3.org/2000/svg" xmlns:xlink="http://www.w3.org/1999/xlink" xml:space="preserve" xmlns:serif="http://www.serif.com/" style="fill-rule:evenodd;clip-rule:evenodd;stroke-linecap:square;stroke-miterlimit:10;">
    <g id="Icons" transform="matrix(1.79215,0,0,1.79215,-38.5332,-38.0941)">
        <path d="M47.9,48.1C47.9,48.484 48.216,48.8 48.6,48.8C48.984,48.8 49.3,48.484 49.3,48.1C49.3,47.716 48.984,47.4 48.6,47.4C48.216,47.4 47.9,47.716 47.9,48.1Z" style="fill:none;fill-rule:nonzero;stroke:rgb(242,13,13);stroke-width:0.56px;"/>
    </g>
    <path id="Icons1" serif:id="Icons" d="M41.8,56.2C38.724,58.164 35.437,59.774 32,61C28.563,62.226 8,53 8,35L8,9L32,3L56,9L56,35C56.017,35.701 55.983,36.403 55.9,37.1M41.8,52.9L55.4,52.9L55.4,43.4L41.8,43.4L41.8,52.9ZM52.7,43.4L52.7,38C52.69,35.755 50.845,33.91 48.6,33.9C46.355,33.91 44.51,35.755 44.5,38L44.5,43.4M22.8,51.5L38.4,51.5M41.592,39.378L36.954,38.053L36.954,34.669C38.984,32.924 40.496,30.654 41.322,28.108C42.762,27.767 43.832,26.541 43.976,25.068C44.385,23.441 43.486,21.749 41.909,21.177L41.909,17.529C41.909,15.07 40.091,12.575 36.247,12.575L35.035,10.006C34.723,9.386 33.983,9.1 33.335,9.348L25.543,12.465C23.535,13.388 22.202,15.358 22.092,17.565L22.092,21.181C20.515,21.753 19.616,23.445 20.025,25.072C20.169,26.545 21.239,27.771 22.679,28.112C23.505,30.658 25.016,32.929 27.047,34.673L27.047,38.057L16.29,41.126" style="fill:none;fill-rule:nonzero;stroke:rgb(242,13,13);stroke-width:1px;"/>
</svg>
