<svg width="142" height="142" xmlns="http://www.w3.org/2000/svg" xmlns:xlink="http://www.w3.org/1999/xlink" xml:space="preserve" overflow="hidden"><g transform="translate(-614 -1420)"><g><path d="M751 1492C751 1528.38 721.385 1558 685 1558 648.615 1558 619 1528.38 619 1492 619 1455.62 648.615 1426 685 1426 721.385 1426 751 1455.62 751 1492ZM649.885 1510.62C656.654 1523.31 669.769 1531.77 685 1531.77 700.231 1531.77 713.346 1523.31 720.115 1510.62M658.769 1468.31C655.385 1468.31 652.846 1470.85 652.846 1474.23 652.846 1477.62 655.385 1480.15 658.769 1480.15 662.154 1480.15 664.692 1477.62 664.692 1474.23 664.692 1470.85 662.154 1468.31 658.769 1468.31ZM712.077 1468.31C708.692 1468.31 706.154 1470.85 706.154 1474.23 706.154 1477.62 708.692 1480.15 712.077 1480.15 715.462 1480.15 718 1477.62 718 1474.23 718 1470.85 715.462 1468.31 712.077 1468.31Z" stroke="#505050" stroke-width="5.72917" stroke-linecap="butt" stroke-linejoin="miter" stroke-miterlimit="8" stroke-opacity="1" fill="none" fill-rule="evenodd"/></g></g></svg>