<svg width="151" height="142" xmlns="http://www.w3.org/2000/svg" xmlns:xlink="http://www.w3.org/1999/xlink" xml:space="preserve" overflow="hidden"><g transform="translate(-261 -1090)"><g><path d="M356.978 1206.87C352.559 1211.29 345.329 1214.11 339.705 1215.72 339.705 1215.72 339.705 1215.72 339.705 1229 339.705 1229 339.705 1229 315.604 1229 315.604 1229 315.604 1229 315.604 1214.11 305.562 1212.5 297.126 1206.87 289.896 1199.22 289.896 1199.22 289.896 1199.22 278.247 1205.26 278.247 1205.26 278.247 1205.26 267 1183.12 267 1183.12 267 1183.12 278.247 1177.09 277.042 1172.66 275.435 1168.23 275.435 1162.19 275.435 1157.77 277.042 1151.73 278.247 1147.3 278.247 1147.3 278.247 1147.3 267 1141.67 267 1141.67 267 1141.67 278.247 1119.13 278.247 1119.13 278.247 1119.13 289.896 1125.17 297.126 1117.93 305.562 1111.89 315.604 1110.28 315.604 1110.28 315.604 1110.28 315.604 1097 315.604 1097 315.604 1097 339.705 1097 339.705 1097 339.705 1097 339.705 1109.07 349.747 1111.89 359.789 1117.93 367.02 1125.17 367.02 1125.17 367.02 1125.17 377.062 1119.13 377.062 1119.13 377.062 1119.13 389.916 1141.67 389.916 1141.67 389.916 1141.67 378.267 1147.3 379.874 1151.73 380.275 1157.37 380.275 1162.19 380.275 1165.01 380.275 1168.63 379.07 1172.66M341.714 1137.24C337.697 1134.43 333.278 1132.82 327.253 1132.82 309.98 1132.82 297.126 1147.71 297.126 1163.8 297.126 1175.48 301.143 1184.33 309.98 1189.96M350.952 1192.78C391.523 1218.54 391.523 1218.54 391.523 1218.54 396.744 1221.76 403.573 1220.55 406.787 1215.32 410 1210.49 408.795 1203.65 403.573 1200.02 362.2 1175.48 362.2 1175.48 362.2 1175.48 361.396 1175.07 361.396 1175.07 361.396 1175.07 361.798 1173.06 361.396 1171.05 360.994 1169.04 358.584 1157.77 347.337 1150.12 336.09 1152.94 332.073 1153.74 328.056 1155.76 325.244 1158.57 344.927 1170.65 344.927 1170.65 344.927 1170.65 340.107 1177.09 340.107 1177.09 340.107 1177.09 321.228 1165.01 321.228 1165.01 321.228 1165.01 319.621 1169.04 318.818 1173.46 320.023 1177.89 322.433 1189.16 333.278 1196.4 344.927 1193.99 346.534 1193.59 348.542 1193.18 350.149 1192.38L350.952 1192.78Z" stroke="#505050" stroke-width="5.72917" stroke-linecap="square" stroke-linejoin="miter" stroke-miterlimit="8" stroke-opacity="1" fill="none" fill-rule="evenodd"/></g></g></svg>