<svg width="169" height="147" xmlns="http://www.w3.org/2000/svg" xmlns:xlink="http://www.w3.org/1999/xlink" xml:space="preserve" overflow="hidden"><g transform="translate(-252 -1090)"><g><path d="M259 1186.73C278.822 1186.65 278.822 1186.65 278.822 1186.65 307.392 1215.03 307.392 1215.03 307.392 1215.03 308.338 1214.99 308.338 1214.99 308.338 1214.99 308.338 1109.09 308.338 1109.09 308.338 1109.09 307.392 1109.05 307.392 1109.05 307.392 1109.05 278.822 1137.43 278.822 1137.43 278.822 1137.43 259 1137.35 259 1137.35 259 1137.35L259 1186.73ZM379.43 1096C416 1132.44 416 1191.56 379.43 1228M358.544 1116.83C383.567 1141.8 383.567 1182.2 358.544 1207.17M337.658 1137.67C351.096 1151.11 351.096 1172.89 337.658 1186.33" stroke="#505050" stroke-width="5.72917" stroke-linecap="square" stroke-linejoin="miter" stroke-miterlimit="8" stroke-opacity="1" fill="none" fill-rule="evenodd"/></g></g></svg>